<svg xmlns="http://www.w3.org/2000/svg" viewBox="0 0 231.01 68.92"><title>Ativo 3</title><g id="Camada_2" data-name="Camada 2"><g id="Camada_1-2" data-name="Camada 1"><path d="M61.8,102.92l6.13-6.22C71.71,102.27,76.7,105,81.6,105c8.61,0,12.6-4.29,12.6-14.73V54.89H67.3V46.32h37V91.14c0,12.5-5.71,22.78-22.46,22.78A23.49,23.49,0,0,1,61.8,102.92Z" transform="translate(-12 -45)"/><path d="M142.56,104l6-7a28.15,28.15,0,0,0,19,7.86c8.43,0,13.11-3.87,13.11-9.2,0-6.48-4.86-8.28-11.46-11.06l-9.39-4.1c-6.8-2.67-14.26-7.57-14.26-17.34,0-10.33,9.34-18.14,22.48-18.14A30,30,0,0,1,189,53.31l-5.27,6.49a23.54,23.54,0,0,0-16.09-5.91c-7,0-11.71,3.23-11.71,8.65,0,5.75,5.74,7.86,11.61,10.12l9,4c8.35,3.24,14.59,8.09,14.59,17.78,0,10.64-9,19.33-24.12,19.33A35.06,35.06,0,0,1,142.56,104Z" transform="translate(-12 -45)"/><path d="M121.42,68.18c0-3.16,2.6-5.47,6-5.47s6,2.31,6,5.47-2.61,5.47-6,5.47S121.42,71.4,121.42,68.18Zm0,20.44c0-3.16,2.6-5.47,6-5.47s6,2.31,6,5.47-2.61,5.47-6,5.47S121.42,91.84,121.42,88.62Z" transform="translate(-12 -45)"/><path d="M12,81.87V75.39L49.3,49.88V58l-30,20.45v.4l30,20.46v8.1Z" transform="translate(-12 -45)"/><path d="M243,76.34v6.48l-37.3,25.51v-8.1l30-20.45v-.4l-30-20.46v-8.1Z" transform="translate(-12 -45)"/></g></g></svg>